<svg width="185" height="79" viewBox="0 0 185 79" fill="none" xmlns="http://www.w3.org/2000/svg">
<path d="M0.815042 8.73514C0.815042 4.36975 4.35385 0.830888 8.71924 0.830813L154.604 0.828304C157.28 0.828258 159.774 2.18214 161.232 4.42607L181.166 35.1065C182.868 37.7254 182.868 41.1007 181.166 43.7196L161.232 74.4002C159.774 76.644 157.28 77.9979 154.604 77.9979L8.71952 78.0004C4.35402 78.0005 0.815042 74.4616 0.815042 70.0961V8.73514Z" fill="#FF6D38" stroke="#141414" stroke-width="1.05391"/>
<path d="M55.8259 42.2701H60.964V55.9717H55.8259V67.3081H39.3514V55.9717H13.2939V41.2914L38.7397 10.5444H55.8259V42.2701ZM39.3514 28.6093L28.2596 42.2701H39.3514V28.6093ZM92.1628 29.6695C95.4251 29.6695 98.4019 30.4307 101.093 31.9531C103.785 33.4755 105.905 35.5688 107.455 38.233C109.004 40.87 109.779 43.7789 109.779 46.9596C109.779 51.1462 108.828 54.8978 106.925 58.2145C105.049 61.504 102.371 64.0866 98.8913 65.9624C95.4115 67.811 91.3608 68.7354 86.7393 68.7354C81.9818 68.7354 77.8767 67.947 74.4242 66.3702C70.9988 64.7662 68.2802 62.5778 66.2685 59.8049C64.2839 57.0319 62.9654 53.8648 62.3129 50.3035H79.8885C80.3235 51.8259 81.0982 53.0084 82.2129 53.8512C83.3547 54.6668 84.7819 55.0746 86.4946 55.0746C87.7451 55.0746 88.8598 54.7755 89.8384 54.1774C90.8171 53.5522 91.5783 52.7094 92.122 51.6492C92.6657 50.5617 92.9376 49.3656 92.9376 48.0606C92.9376 46.8373 92.6522 45.7227 92.0813 44.7168C91.5104 43.7109 90.722 42.9226 89.7161 42.3517C88.7102 41.7808 87.582 41.4953 86.3315 41.4953C85.0809 41.4953 83.912 41.7536 82.8245 42.2701C81.7643 42.7594 80.9623 43.4391 80.4186 44.309H64.3519L68.8375 10.5444H104.926V24.6946H81.7643L80.6633 34.1144C83.3275 31.1512 87.1606 29.6695 92.1628 29.6695ZM136.737 68.7354C131.68 68.7354 127.249 67.5256 123.443 65.1061C119.664 62.6594 116.742 59.1932 114.676 54.7075C112.637 50.1947 111.617 44.9343 111.617 38.9263C111.617 32.9182 112.637 27.6714 114.676 23.1858C116.742 18.6729 119.664 15.2068 123.443 12.7872C127.249 10.3405 131.68 9.11717 136.737 9.11717C141.794 9.11717 146.211 10.3405 149.99 12.7872C153.796 15.2068 156.718 18.6729 158.757 23.1858C160.824 27.6714 161.857 32.9182 161.857 38.9263C161.857 44.9343 160.824 50.1947 158.757 54.7075C156.718 59.1932 153.796 62.6594 149.99 65.1061C146.211 67.5256 141.794 68.7354 136.737 68.7354ZM136.737 54.0551C139.075 54.0551 140.801 52.8181 141.916 50.3442C143.058 47.8703 143.629 44.0644 143.629 38.9263C143.629 33.7882 143.058 29.9822 141.916 27.5083C140.801 25.0344 139.075 23.7974 136.737 23.7974C134.399 23.7974 132.659 25.0344 131.517 27.5083C130.403 29.9822 129.845 33.7882 129.845 38.9263C129.845 44.0644 130.403 47.8703 131.517 50.3442C132.659 52.8181 134.399 54.0551 136.737 54.0551Z" fill="#141414"/>
</svg>
